<svg id="squeezefilm" xmlns="http://www.w3.org/2000/svg" width="95.464" height="102.73" viewBox="0 0 95.464 102.73">
  <rect id="長方形_87" data-name="長方形 87" width="63.944" height="40.692" rx="1.3" transform="translate(6.313 48.458)" stroke="#000" stroke-miterlimit="10" stroke-width="1" opacity="0.6"/>
  <path id="パス_31" data-name="パス 31" d="M46.939,18.78,30.023,29.185a1.163,1.163,0,0,0-.523.988V50.52a1.163,1.163,0,0,0,.523.988L46.939,61.8a1.918,1.918,0,0,0,2.907-1.686V20.466a1.918,1.918,0,0,0-2.907-1.686Z" transform="translate(45.117 28.516)" stroke="#000" stroke-miterlimit="10" stroke-width="1" opacity="0.6"/>
  <rect id="長方形_88" data-name="長方形 88" width="29.066" height="8.72" transform="translate(25.206 93.51)" stroke="#000" stroke-miterlimit="10" stroke-width="1" opacity="0.6"/>
  <circle id="楕円形_3" data-name="楕円形 3" cx="21.799" cy="21.799" r="21.799" transform="translate(36.832 0.5)" stroke="#000" stroke-miterlimit="10" stroke-width="1" opacity="0.6"/>
  <circle id="楕円形_4" data-name="楕円形 4" cx="18.893" cy="18.893" r="18.893" transform="translate(39.739 3.407)" fill="rgba(0,0,0,0.2)" stroke="#fff" stroke-miterlimit="10" stroke-width="1"/>
  <circle id="楕円形_5" data-name="楕円形 5" cx="1.453" cy="1.453" r="1.453" transform="translate(57.178 20.846)" fill="#fff" stroke="#fff" stroke-miterlimit="10" stroke-width="1"/>
  <line id="線_10" data-name="線 10" y2="37.566" transform="translate(58.414 3.63)" fill="none" stroke="#fff" stroke-miterlimit="10" stroke-width="0.75"/>
  <line id="線_11" data-name="線 11" x2="37.785" transform="translate(39.739 22.299)" fill="none" stroke="#fff" stroke-miterlimit="10" stroke-width="0.75"/>
  <line id="線_12" data-name="線 12" y1="26.74" x2="26.74" transform="translate(45.261 8.929)" fill="none" stroke="#fff" stroke-miterlimit="10" stroke-width="0.75"/>
  <line id="線_13" data-name="線 13" x2="26.74" y2="26.74" transform="translate(45.261 8.929)" fill="none" stroke="#fff" stroke-miterlimit="10" stroke-width="0.75"/>
  <circle id="楕円形_6" data-name="楕円形 6" cx="14.533" cy="14.533" r="14.533" transform="translate(0.5 13.58)" stroke="#000" stroke-miterlimit="10" stroke-width="1" opacity="0.6"/>
  <circle id="楕円形_7" data-name="楕円形 7" cx="12.585" cy="12.585" r="12.585" transform="translate(2.447 15.527)" fill="rgba(0,0,0,0.2)" stroke="#fff" stroke-miterlimit="10" stroke-width="0.75"/>
  <circle id="楕円形_8" data-name="楕円形 8" cx="0.959" cy="0.959" r="0.959" transform="translate(14.074 27.153)" fill="#fff" stroke="#fff" stroke-miterlimit="10" stroke-width="1"/>
  <line id="線_14" data-name="線 14" y2="25.171" transform="translate(15.033 15.527)" fill="none" stroke="#fff" stroke-miterlimit="10" stroke-width="0.5"/>
  <line id="線_15" data-name="線 15" x2="25.171" transform="translate(2.447 28.112)" fill="none" stroke="#fff" stroke-miterlimit="10" stroke-width="0.5"/>
  <line id="線_16" data-name="線 16" y1="17.788" x2="17.788" transform="translate(6.139 19.218)" fill="none" stroke="#fff" stroke-miterlimit="10" stroke-width="0.5"/>
  <line id="線_17" data-name="線 17" x2="17.788" y2="17.788" transform="translate(6.139 19.218)" fill="none" stroke="#fff" stroke-miterlimit="10" stroke-width="0.5"/>
</svg>
